<?xml version="1.0" standalone="no"?>
<!DOCTYPE svg PUBLIC "-//W3C//DTD SVG 20010904//EN"
 "http://www.w3.org/TR/2001/REC-SVG-20010904/DTD/svg10.dtd">
<svg version="1.0" xmlns="http://www.w3.org/2000/svg"
 width="225.000000pt" height="224.000000pt" viewBox="0 0 225.000000 224.000000"
 preserveAspectRatio="xMidYMid meet">

<g transform="translate(0.000000,224.000000) scale(0.100000,-0.100000)"
fill="#000000" stroke="none">
<path d="M0 1120 l0 -1120 1125 0 1125 0 0 1120 0 1120 -1125 0 -1125 0 0
-1120z m965 780 c65 -22 136 -40 156 -40 21 0 88 18 150 40 196 71 280 64 384
-32 l55 -50 27 20 c29 20 160 72 226 90 33 9 37 9 37 -9 0 -23 4 -24 37 -2
l26 17 -5 -79 c-4 -55 -14 -103 -34 -152 -30 -76 -40 -81 -46 -23 l-4 35 -18
-37 c-24 -46 -36 -41 -29 12 3 21 3 46 -1 55 -5 15 -10 14 -42 -5 -36 -23 -63
-19 -31 4 30 23 20 39 -13 19 -42 -25 -46 -48 -16 -92 14 -20 26 -42 26 -48 0
-21 -207 -31 -275 -12 -43 12 -105 67 -105 94 0 16 3 15 33 -2 27 -16 36 -17
57 -6 14 7 51 13 83 13 67 0 72 12 27 55 -58 55 -210 44 -270 -20 -19 -21 -33
-25 -76 -25 -29 0 -64 4 -78 10 -17 6 -26 6 -26 -1 0 -5 7 -12 15 -15 39 -15
-8 -24 -128 -24 l-132 0 30 26 c21 18 24 24 10 19 -11 -4 -48 -9 -82 -12 -57
-5 -65 -3 -94 22 -86 72 -212 78 -278 13 -17 -17 -31 -34 -31 -39 0 -5 31 -9
69 -9 51 0 74 -4 86 -16 15 -16 18 -15 46 5 l29 22 0 -21 c0 -30 -50 -76 -96
-89 -73 -20 -274 -10 -274 13 0 7 14 31 31 54 l30 42 -25 25 c-14 14 -33 25
-42 25 -16 0 -16 -2 1 -20 26 -29 10 -37 -25 -12 -35 26 -42 19 -50 -53 l-5
-50 -20 44 -20 44 -5 -44 -5 -44 -22 36 c-29 46 -53 140 -53 207 l0 54 25 -16
c31 -20 35 -20 35 3 0 19 2 19 68 -1 83 -25 159 -56 194 -80 l26 -18 59 50
c108 93 177 98 378 30z m320 -270 c-4 -6 -24 -19 -46 -31 -65 -33 -214 -24
-280 16 -28 18 19 25 167 25 109 0 163 -3 159 -10z m-340 -71 c27 -17 70 -47
94 -68 l45 -38 -30 -59 c-25 -51 -33 -59 -59 -61 -16 -2 -80 -10 -141 -19 -81
-11 -117 -13 -132 -5 -20 11 -49 67 -39 77 3 3 49 6 103 6 118 1 112 13 -23
48 -117 30 -113 28 -113 39 0 5 8 17 17 26 13 14 31 16 89 13 78 -4 86 3 27
23 l-37 12 29 25 c25 21 35 23 74 18 25 -3 68 -20 96 -37z m511 25 c19 -9 34
-20 34 -24 0 -4 -17 -14 -37 -23 l-38 -15 77 -1 c68 -1 79 -4 89 -22 14 -28 7
-33 -76 -53 -38 -9 -88 -26 -110 -37 l-40 -19 102 5 c56 3 104 1 107 -3 6 -10
-19 -60 -39 -81 -12 -12 -30 -12 -132 2 -65 9 -131 18 -148 19 -25 3 -34 12
-58 57 l-28 54 33 35 c62 65 159 120 211 122 11 0 34 -7 53 -16z m-1004 -4
c29 -6 63 -13 76 -16 27 -5 28 -21 2 -52 -18 -22 -19 -22 -134 -10 -126 13
-135 20 -91 63 27 28 62 31 147 15z m1483 -15 c44 -43 35 -50 -91 -63 -115
-12 -116 -12 -134 10 -26 31 -25 47 3 52 152 33 190 34 222 1z m-1490 -93 c37
-7 40 -10 38 -37 -2 -17 -5 -63 -7 -103 -5 -71 -7 -76 -49 -121 -24 -25 -55
-66 -69 -91 -29 -51 -63 -148 -55 -157 3 -3 40 9 82 27 43 17 79 29 82 27 2
-3 -3 -32 -11 -65 -18 -69 -20 -102 -6 -102 5 0 32 9 60 20 64 25 100 26 100
3 -1 -10 -7 -45 -15 -78 -8 -33 -15 -75 -15 -94 0 -33 0 -34 38 -27 20 3 65 9
100 13 l62 6 0 -99 c0 -157 33 -257 100 -301 39 -27 90 -29 170 -8 71 19 121
19 185 -1 92 -29 156 1 198 95 17 37 22 72 25 180 l4 134 62 -6 c33 -4 78 -10
99 -13 l37 -7 0 39 c0 22 -7 64 -15 94 -8 30 -15 63 -15 73 0 23 35 22 105 -4
31 -12 59 -18 63 -15 3 4 -1 40 -10 82 -8 41 -12 76 -8 79 3 2 41 -11 84 -30
l78 -34 -6 37 c-11 60 -63 158 -116 216 -47 50 -50 57 -50 107 0 30 -5 74 -11
98 -6 26 -6 48 -1 53 5 5 49 12 98 15 76 5 92 3 107 -11 31 -31 21 -43 -43
-50 l-61 -7 26 -42 c83 -135 142 -297 170 -465 10 -57 15 -105 13 -108 -3 -2
-34 12 -69 32 -91 51 -112 59 -105 37 14 -53 28 -134 24 -139 -4 -3 -19 1 -35
9 -35 19 -165 59 -170 53 -2 -2 1 -50 7 -106 7 -55 10 -103 7 -106 -3 -3 -40
-1 -82 5 -123 17 -112 28 -117 -106 -6 -119 -25 -201 -55 -235 -86 -97 -481
-118 -653 -34 -74 36 -109 135 -110 307 0 62 -2 67 -23 73 -13 3 -50 1 -83 -4
-94 -16 -88 -24 -81 96 l5 106 -43 -5 c-24 -4 -68 -18 -99 -33 -31 -15 -59
-24 -63 -20 -6 5 12 101 24 134 11 27 -63 -1 -141 -53 l-29 -19 6 80 c14 159
69 327 153 462 26 40 44 75 41 78 -3 3 -30 8 -61 11 -59 6 -67 15 -39 45 17
19 90 24 168 10z m145 -164 c-16 -52 -30 -109 -30 -127 l0 -31 55 0 c30 0 55
-3 55 -7 0 -5 -9 -21 -20 -38 -11 -16 -20 -42 -20 -57 0 -27 2 -28 50 -28 61
0 62 -4 15 -101 -19 -41 -35 -86 -35 -102 0 -17 -4 -26 -11 -22 -6 5 -8 31 -3
76 l7 69 -34 0 c-19 0 -50 -4 -68 -10 -19 -5 -37 -7 -40 -5 -2 3 3 29 12 57
13 41 14 54 4 61 -12 8 -82 3 -124 -9 -15 -4 -23 -2 -23 6 0 26 55 148 91 200
42 62 139 173 146 167 2 -3 -10 -47 -27 -99z m1178 -66 c37 -54 92 -176 92
-202 0 -8 -8 -10 -22 -6 -13 3 -47 9 -77 12 l-54 7 6 -34 c2 -19 9 -49 15 -67
9 -28 9 -33 -3 -28 -7 2 -42 8 -76 12 l-62 7 7 -79 6 -79 -19 50 c-10 28 -31
75 -45 105 -36 77 -35 80 29 80 55 0 55 0 49 28 -4 15 -15 41 -25 58 -10 17
-16 34 -12 37 3 4 28 7 55 7 l48 0 0 36 c0 20 -13 76 -30 126 -16 49 -30 92
-30 96 1 13 110 -109 148 -166z m-305 0 c23 -14 27 -23 27 -62 0 -101 -43
-196 -102 -226 -29 -15 -31 -15 -24 2 4 11 12 54 19 96 11 74 3 163 -17 210
-7 15 -4 16 31 6 21 -5 50 -17 66 -26z m-595 1 c-15 -37 -15 -220 1 -257 15
-36 10 -41 -26 -24 -37 17 -80 105 -91 185 -8 57 -7 65 12 82 25 23 62 39 93
40 21 1 22 -1 11 -26z m190 7 c58 -8 153 -1 215 15 26 7 27 5 27 -28 0 -20 -6
-39 -12 -44 -18 -11 -320 -11 -335 0 -7 5 -13 25 -13 44 0 33 1 35 28 28 15
-4 55 -11 90 -15z m-66 -824 c12 -7 22 -6 35 5 23 21 163 19 188 -1 29 -24 65
6 107 88 39 79 52 80 50 4 0 -28 -11 -65 -29 -101 l-29 -56 -187 0 c-176 -1
-189 1 -207 20 -31 33 -50 90 -50 152 l0 57 53 -79 c28 -43 60 -83 69 -89z"/>
<path d="M1346 1826 c-73 -20 -78 -23 -62 -38 38 -39 74 -29 135 36 29 31 28
31 -73 2z"/>
<path d="M846 1800 c27 -22 52 -40 57 -40 14 0 67 30 67 38 0 9 -112 42 -146
42 -25 0 -23 -2 22 -40z"/>
</g>
</svg>
